<?xml version="1.0" encoding="utf-8"?>
<!-- Generator: Adobe Illustrator 19.2.1, SVG Export Plug-In . SVG Version: 6.00 Build 0)  -->
<svg version="1.1" id="Layer_1" xmlns="http://www.w3.org/2000/svg" xmlns:xlink="http://www.w3.org/1999/xlink" x="0px" y="0px"
	 viewBox="0 0 960 1200" style="enable-background:new 0 0 960 1200;" xml:space="preserve">
<style type="text/css">
	.st0{fill:#06D0FF;}
	.st1{fill:#FFFFFF;}
	.st2{font-family:'ArialRoundedMTBold';}
	.st3{font-size:121.6393px;}
</style>
<circle class="st0" cx="461.9" cy="543.2" r="391.5"/>
<text transform="matrix(1 0 0 1 86.6702 599.9995)" class="st1 st2 st3">blue dot</text>
<path class="st1" d="M132.6,589.5h-29.3c-2.6,0-4.6,2.1-4.6,4.6v2.7c0,2.6,2.1,4.6,4.6,4.6h29.3c2.6,0,4.6-2.1,4.6-4.6v-2.7
	C137.2,591.6,135.1,589.5,132.6,589.5z"/>
<path class="st1" d="M253,589.5h-29.3c-2.6,0-4.6,2.1-4.6,4.6v2.7c0,2.6,2.1,4.6,4.6,4.6H253c2.6,0,4.6-2.1,4.6-4.6v-2.7
	C257.7,591.6,255.6,589.5,253,589.5z"/>
<rect x="402" y="590" class="st1" width="30" height="11"/>
</svg>
