<?xml version="1.0" encoding="utf-8"?>
<!-- Generator: Adobe Illustrator 19.2.1, SVG Export Plug-In . SVG Version: 6.00 Build 0)  -->
<svg version="1.1" id="Layer_1" xmlns="http://www.w3.org/2000/svg" xmlns:xlink="http://www.w3.org/1999/xlink" x="0px" y="0px"
	 viewBox="0 0 640 400" style="enable-background:new 0 0 640 400;" xml:space="preserve">
<style type="text/css">
	.st0{fill:#FFFFFF;}
	.st1{fill:#06D0FF;}
	.st2{fill:#FFFFFF;}
	.st3{font-family:'ArialRoundedMTBold';}
	.st4{font-size:55.6127px;}
</style>
<rect class="st0" width="640" height="400"/>
<circle class="st1" cx="319.6" cy="200" r="179"/>
<text transform="matrix(1 0 0 1 148.0903 225.9541)" class="st2 st3 st4">blue dot</text>
<path class="st2" d="M170,221.2h-15.3c-0.6,0-1.2,0.5-1.2,1.2v3.1c0,0.6,0.5,1.2,1.2,1.2H170c0.6,0,1.2-0.5,1.2-1.2v-3.1
	C171.2,221.7,170.7,221.2,170,221.2z"/>
<path class="st2" d="M225.1,221.2h-15.3c-0.6,0-1.2,0.5-1.2,1.2v3.1c0,0.6,0.5,1.2,1.2,1.2h15.3c0.6,0,1.2-0.5,1.2-1.2v-3.1
	C226.3,221.7,225.8,221.2,225.1,221.2z"/>
<rect x="293" y="222" class="st2" width="14" height="4"/>
</svg>
