<?xml version="1.0" encoding="utf-8"?>
<!-- Generator: Adobe Illustrator 19.2.1, SVG Export Plug-In . SVG Version: 6.00 Build 0)  -->
<svg version="1.1" id="Layer_1" xmlns="http://www.w3.org/2000/svg" xmlns:xlink="http://www.w3.org/1999/xlink" x="0px" y="0px"
	 viewBox="0 0 640 400" style="enable-background:new 0 0 640 400;" xml:space="preserve">
<style type="text/css">
	.st0{fill:#9B26B7;}
	.st1{fill:#10D305;}
	.st2{fill:none;}
	.st3{fill:#FFF200;}
</style>
<rect class="st0" width="640" height="400"/>
<path class="st1" d="M204.6,45.9c-13.4,0-24.4,15.2-24.4,33.8v236.2c0,18.6,11,33.8,24.4,33.8h243.6c13.4,0,24.2-15.2,24.2-33.8
	l0.1-236.2c0-18.6-11-33.8-24.4-33.8"/>
<path class="st2" d="M192.2,397.7v-405"/>
<path class="st3" d="M327.2,93.9c28,0,50.6,22.6,50.6,50.6s-22.6,50.6-50.6,50.6c-28,0-50.6-22.6-50.6-50.6S299.1,93.9,327.2,93.9z
	 M428.4,296.4H225.9v-16.9c0-33.7,67.5-52.3,101.2-52.3s101.2,18.6,101.2,52.3V296.4z"/>
</svg>
