<?xml version="1.0" encoding="utf-8"?>
<!-- Generator: Adobe Illustrator 19.2.1, SVG Export Plug-In . SVG Version: 6.00 Build 0)  -->
<svg version="1.1" id="Layer_1" xmlns="http://www.w3.org/2000/svg" xmlns:xlink="http://www.w3.org/1999/xlink" x="0px" y="0px"
	 viewBox="0 0 640 400" style="enable-background:new 0 0 640 400;" xml:space="preserve">
<style type="text/css">
	.st0{fill:#3CD3D9;}
	.st1{fill:#FFFFFF;}
	.st2{fill:#FF001F;}
</style>
<rect class="st0" width="640" height="400"/>
<path id="path3297" class="st1" d="M468,90.1H172c-5.9,0-10.6,4.7-10.6,10.6v185.8c0,5.9,4.7,10.6,10.6,10.6h296
	c5.9,0,10.6-4.7,10.6-10.6V100.6C478.6,94.8,473.9,90.1,468,90.1L468,90.1L468,90.1z M182.6,120.1l94.7,70.3l-94.7,77.2L182.6,120.1
	L182.6,120.1z M320,199l-118.2-87.7h236.4L320,199L320,199z M290.5,200.1l24,17.8c1.6,1.2,3.6,1.8,5.5,1.8s3.9-0.6,5.5-1.8
	l24.8-18.4c0.1,0,0.1,0.1,0.1,0.1l92.2,76.2h-245L290.5,200.1L290.5,200.1z M363.5,189.8l94-69.7v147.3L363.5,189.8L363.5,189.8z"/>
<path id="path3265" class="st2" d="M468.5,58.6c20.3,0,36.7,16.4,36.7,36.7c0,20.3-16.4,36.7-36.7,36.7c-20.3,0-36.7-16.4-36.7-36.7
	C431.8,75.1,448.2,58.6,468.5,58.6"/>
</svg>
