<?xml version="1.0" encoding="utf-8"?>
<!-- Generator: Adobe Illustrator 19.2.1, SVG Export Plug-In . SVG Version: 6.00 Build 0)  -->
<svg version="1.1" id="Layer_1" xmlns="http://www.w3.org/2000/svg" xmlns:xlink="http://www.w3.org/1999/xlink" x="0px" y="0px"
	 viewBox="0 0 640 400" style="enable-background:new 0 0 640 400;" xml:space="preserve">
<style type="text/css">
	.st0{fill:#4D58BA;}
	.st1{fill:#F4F4F4;}
</style>
<rect class="st0" width="640" height="400"/>
<path id="path3377" class="st1" d="M445.1,70.3H200.9c-8.4,0-15.1,6.8-15.1,15.1v244.2c0,8.4,6.8,15.1,15.1,15.1h52.2h79.2V238.5
	h-35.7V197h35.7v-30.5c0-35.4,21.7-54.7,53.3-54.7c15.1,0,28.2,1.1,32,1.6v37h-21.9c-17.2,0-20.5,8.1-20.5,20.1V197h41l-5.3,41.5
	h-35.7v106.3h64.2h5.7c8.4,0,15.1-6.8,15.1-15.1V85.4C460.2,77,453.5,70.3,445.1,70.3L445.1,70.3L445.1,70.3z"/>
</svg>
