<?xml version="1.0" encoding="utf-8"?>
<!-- Generator: Adobe Illustrator 19.2.1, SVG Export Plug-In . SVG Version: 6.00 Build 0)  -->
<svg version="1.1" id="Layer_1" xmlns="http://www.w3.org/2000/svg" xmlns:xlink="http://www.w3.org/1999/xlink" x="0px" y="0px"
	 viewBox="0 0 640 400" style="enable-background:new 0 0 640 400;" xml:space="preserve">
<style type="text/css">
	.st0{fill:#D4EB47;}
	.st1{fill:#545454;}
</style>
<rect class="st0" width="640" height="400"/>
<path id="path3383" class="st1" d="M134.7,204c16.4-4.1,38.8-9.7,77.9-10.7c-1.1-2.2-2.1-4.4-2.9-6.7c-15.2-0.1-62.1,2-78.2,6
	c-0.1,0-0.2,0-0.3,0c-0.5,0-1-0.4-1.2-0.9c-0.2-0.6,0.2-1.3,0.9-1.4c15.9-3.9,61.7-6.1,77.9-6.1c-3.6-10.7-5.3-23-5.3-36.7
	c0-24.4,7.6-33.6,17.8-46.6c-7.8-27.8,2.8-46.8,2.8-46.8s16.4-3.4,47.4,18.8c16.8-7.2,61.6-7.8,82.7-1.6c13-8.6,36.8-20.8,46.4-17.4
	c2.6,4.2,8.2,16.4,3.4,43.2c3.3,5.9,20.2,18.4,20.3,53.8c-0.3,13-1.6,24.1-4.1,33.4c40.4-0.3,64.1,3,80.5,6c0.6,0.1,1.1,0.8,1,1.4
	c-0.1,0.6-0.6,1-1.2,1c-0.1,0-0.2,0-0.2,0c-16.3-3-40.1-6.3-80.8-6c-0.7,2.4-1.5,4.6-2.4,6.8c13.8,0.5,51.8,1.9,82.8,11.4
	c0.6,0.2,1,0.9,0.8,1.5c-0.2,0.5-0.6,0.8-1.1,0.8c-0.1,0-0.2,0-0.3-0.1c-31.4-9.6-70.2-10.9-83.1-11.3
	c-11.2,24.7-34.3,33.9-71.5,37.7c12.1,7.6,15.5,17.1,15.5,42.9c0,25.8-0.3,29.2-0.3,35.2c0.1,9.7,14.4,14.4,13.9,17.5
	c-0.5,3.1-11.9,2.6-17.3,0.8c-15.1-5.3-13.6-17.8-13.6-17.8l-0.5-34.5c0,0,1-18.6-5.8-18.6v56.4c0,12.3,8.6,16,8.6,20.5
	c0,7.8-15.7-0.7-20.5-5.6c-7.4-7.4-6.5-23.1-6.3-35.5c0.2-12-0.1-38.2-0.1-38.2l-5,0.1c0,0,2.1,57.2-2.6,67.6
	c-6.1,13.4-24.3,18-24.3,11.9c0-4.1,4.5-2.8,7-12c2.1-7.8,1.4-66.1,1.4-66.1s-5.9,3.5-5.9,14.4c0,5-0.1,33.6-0.1,42.1
	c0,10.7-15.2,16.8-22.5,16.8c-3.7,0-8.3-0.2-8.3-2.1c0-4.9,13.9-7.9,13.9-18.1c0-8.9-0.2-31.9-0.2-31.9s-7,1.2-17,1.2
	c-25.2,0-33.1-16.1-36.9-25.1c-4.9-11.7-11.3-17.2-18.1-21.6c-4.2-2.7-5.1-5.9-0.3-6.8c22.3-4.2,28,25.3,42.9,30
	c10.6,3.4,24.3,1.9,31.1-2.5c0.9-9,7.4-16.8,12.8-20.9c-37.9-3.6-60.3-16.8-71.9-37.9c-39.6,1-62.1,6.6-78.6,10.7
	c-1.2,0.3-2.4,0.6-3.5,0.9c-0.1,0-0.2,0-0.3,0c-0.5,0-1-0.4-1.2-0.9c-0.2-0.6,0.2-1.3,0.9-1.5C132.3,204.6,133.5,204.3,134.7,204"/>
</svg>
