<?xml version="1.0" encoding="utf-8"?>
<!-- Generator: Adobe Illustrator 19.2.1, SVG Export Plug-In . SVG Version: 6.00 Build 0)  -->
<svg version="1.1" id="Layer_1" xmlns="http://www.w3.org/2000/svg" xmlns:xlink="http://www.w3.org/1999/xlink" x="0px" y="0px"
	 viewBox="0 0 640 400" style="enable-background:new 0 0 640 400;" xml:space="preserve">
<style type="text/css">
	.st0{fill:#2FB093;}
	.st1{fill:#895A4D;}
	.st2{fill:#FF3939;}
	.st3{fill:#FED049;}
	.st4{fill:#10DD76;}
	.st5{fill:#5FCCFF;}
	.st6{fill:#162838;}
	.st7{fill:#2C4356;}
	.st8{fill:#47637A;}
	.st9{fill:#E5E0DC;}
	.st10{fill:#75483D;}
	.st11{fill:#BFB8B2;}
</style>
<rect class="st0" width="640" height="400"/>
<g>
	<g id="Instagram_1_">
		<g id="Instagram">
			<path id="Head" class="st1" d="M420.4,65H218.6C200.1,65,185,80.1,185,98.6v67.2h269V98.6C454,80.1,438.9,65,420.4,65z"/>
			<path id="Red_x5F_Stripes" class="st2" d="M201.8,70v95.8h16.8V65C212.7,65,206.9,66.7,201.8,70z"/>
			<rect id="Yellow_x5F_Stripes" x="218.6" y="65" class="st3" width="16.8" height="100.9"/>
			<rect id="Green_x5F_Stripes" x="235.4" y="65" class="st4" width="16.8" height="100.9"/>
			<rect id="Blue_x5F_Stripes" x="252.2" y="65" class="st5" width="16.8" height="100.9"/>
			<circle id="Lens_1_" class="st6" cx="403.6" cy="115.4" r="25.2"/>
			<circle id="Lens_x5F_Outer" class="st7" cx="403.6" cy="115.4" r="12.6"/>
			<circle id="Lens_x5F_Inside" class="st8" cx="403.6" cy="115.4" r="4.2"/>
			<path id="Body" class="st9" d="M185,165.9v134.5c0,18.5,15.1,33.6,33.6,33.6h201.8c18.5,0,33.6-15.1,33.6-33.6V165.9H185z"/>
			<g id="Shadow">
				<polygon class="st10" points="392.6,165.9 373.3,145.7 373.3,165.9 				"/>
			</g>
			<circle id="Lens" class="st11" cx="319.5" cy="199.5" r="75.7"/>
			<circle id="Inside_x5F_Lens" class="st6" cx="319.5" cy="199.5" r="58.8"/>
			<circle id="_x32_nd_Inner_Circle" class="st7" cx="319.5" cy="199.5" r="33.6"/>
			<circle id="Middle_Circle" class="st6" cx="319.5" cy="199.5" r="16.8"/>
			<circle id="Reflection" class="st8" cx="340.5" cy="178.5" r="12.6"/>
		</g>
	</g>
</g>
</svg>
