<?xml version="1.0" encoding="utf-8"?>
<!-- Generator: Adobe Illustrator 19.2.1, SVG Export Plug-In . SVG Version: 6.00 Build 0)  -->
<svg version="1.1" id="Layer_1" xmlns="http://www.w3.org/2000/svg" xmlns:xlink="http://www.w3.org/1999/xlink" x="0px" y="0px"
	 viewBox="0 0 640 400" style="enable-background:new 0 0 640 400;" xml:space="preserve">
<style type="text/css">
	.st0{fill:#67C65E;}
	.st1{fill:#4260F4;}
</style>
<rect class="st0" width="640" height="400"/>
<path id="path3381" class="st1" d="M418.8,58.5H221.2c-23.6,0-42.7,19.1-42.7,42.7v197.5c0,23.6,19.1,42.7,42.7,42.7h197.5
	c23.6,0,42.7-19.1,42.7-42.7V101.2C461.5,77.6,442.4,58.5,418.8,58.5L418.8,58.5L418.8,58.5z M264.1,296.1h-42.5v-128h42.5V296.1
	L264.1,296.1z M242.9,150.6h-0.3c-14.3,0-23.5-9.8-23.5-22.1c0-12.5,9.5-22.1,24.1-22.1c14.5,0,23.5,9.6,23.8,22.1
	C266.9,140.8,257.7,150.6,242.9,150.6L242.9,150.6L242.9,150.6z M417.5,296.1H375v-68.5c0-17.2-6.2-28.9-21.5-28.9
	c-11.7,0-18.7,7.9-21.8,15.6c-1.1,2.7-1.4,6.6-1.4,10.4v71.5h-42.5c0,0,0.6-116,0-128h42.5v18.1c5.7-8.7,15.8-21.1,38.3-21.1
	c28,0,49,18.3,49,57.6v73.3H417.5z"/>
</svg>
