<?xml version="1.0" encoding="utf-8"?>
<!-- Generator: Adobe Illustrator 19.2.1, SVG Export Plug-In . SVG Version: 6.00 Build 0)  -->
<svg version="1.1" id="Layer_1" xmlns="http://www.w3.org/2000/svg" xmlns:xlink="http://www.w3.org/1999/xlink" x="0px" y="0px"
	 viewBox="0 0 640 400" style="enable-background:new 0 0 640 400;" xml:space="preserve">
<style type="text/css">
	.st0{fill:#38BDF4;}
	.st1{fill:#FCFCFC;}
</style>
<rect class="st0" width="640" height="400"/>
<path id="path3379_1_" class="st1" d="M352.1,98.5c-22.9,8.3-37.4,29.6-35.8,52.9l0.6,9l-9.2-1.1c-33.4-4.2-62.6-18.5-87.4-42.6
	l-12.1-11.9l-3.1,8.8c-6.6,19.6-2.4,40.4,11.4,54.3c7.3,7.7,5.7,8.8-7,4.2c-4.4-1.5-8.3-2.6-8.6-2c-1.3,1.3,3.1,18,6.6,24.6
	c4.8,9.2,14.5,18.2,25.1,23.5l9,4.2l-10.6,0.2c-10.3,0-10.6,0.2-9.5,4c3.7,11.9,18.2,24.6,34.3,30.1l11.4,3.9l-9.9,5.9
	c-14.7,8.4-31.9,13.2-49.2,13.6c-8.3,0.2-15.1,0.9-15.1,1.5c0,1.8,22.4,12.1,35.4,16.2c39.1,11.9,85.5,6.8,120.4-13.6
	c24.8-14.5,49.6-43.3,61.1-71.2c6.2-14.9,12.5-42,12.5-55.1c0-8.4,0.6-9.5,10.8-19.6c6.1-5.9,11.7-12.3,12.8-14.1
	c1.8-3.5,1.7-3.5-7.7-0.4c-15.6,5.5-17.8,4.8-10.1-3.5c5.7-5.9,12.5-16.5,12.5-19.6c0-0.6-2.8,0.4-5.9,2c-3.3,1.8-10.6,4.6-16.2,6.2
	l-9.9,3.1l-9-6.1c-5-3.3-11.9-7-15.6-8.1C374.9,95.2,360.6,95.5,352.1,98.5"/>
</svg>
