<?xml version="1.0" encoding="utf-8"?>
<!-- Generator: Adobe Illustrator 19.2.1, SVG Export Plug-In . SVG Version: 6.00 Build 0)  -->
<svg version="1.1" id="Layer_1" xmlns="http://www.w3.org/2000/svg" xmlns:xlink="http://www.w3.org/1999/xlink" x="0px" y="0px"
	 viewBox="0 0 640 400" style="enable-background:new 0 0 640 400;" xml:space="preserve">
<style type="text/css">
	.st0{fill:#E4413F;}
	.st1{fill:#EFEFEF;}
</style>
<rect class="st0" width="640" height="400"/>
<g id="Flat_copy">
	<g>
		<g>
			<path class="st1" d="M428.5,203.8c-11.6-11.6-109.3-11.7-109.3-11.7c0,0-97.7,0.1-109.3,11.7c-11.6,11.6-11.7,68.9-11.7,69.2
				c0,0.4,0,57.6,11.7,69.2c11.6,11.6,109.3,11.8,109.3,11.8s97.7-0.3,109.3-11.8c11.7-11.6,11.8-69.2,11.8-69.2
				C440.2,272.6,440.1,215.4,428.5,203.8z M272.7,237.5h-16.4v83.2h-15.9v-83.2h-16.4v-14.1h48.8V237.5z M319.2,320.7h-14.1v-7.9
				c-2.6,2.9-5.3,5.1-8.2,6.6c-2.8,1.5-5.5,2.3-8.2,2.3c-3.3,0-5.7-1-7.4-3.2c-1.6-2.2-2.5-5.3-2.5-9.6v-60H293V304
				c0,1.7,0.3,2.9,0.9,3.7c0.6,0.8,1.6,1.1,2.9,1.1c1,0,2.4-0.5,3.9-1.5c1.6-1,3-2.3,4.4-3.8v-54.5h14.1V320.7z M370.4,305.9
				c0,5.1-1.1,9-3.3,11.7c-2.2,2.7-5.4,4-9.6,4c-2.8,0-5.2-0.5-7.4-1.6c-2.2-1-4.2-2.6-6-4.9v5.5h-14.3v-97.3h14.3v31.3
				c1.9-2.2,3.9-3.9,6.1-5c2.2-1.2,4.3-1.7,6.5-1.7c4.5,0,7.9,1.5,10.2,4.6c2.4,3.1,3.5,7.5,3.5,13.4V305.9z M419.4,286.6h-27V300
				c0,3.8,0.5,6.4,1.4,7.9c1,1.5,2.5,2.2,4.8,2.2c2.3,0,4-0.6,4.9-1.9s1.4-4,1.4-8.2v-3.3h14.5v3.7c0,7.4-1.8,12.9-5.3,16.7
				c-3.5,3.7-8.8,5.6-15.8,5.6c-6.3,0-11.3-2-14.9-5.9c-3.6-3.9-5.5-9.4-5.5-16.3v-32.2c0-6.2,2-11.3,6-15.2c4-3.9,9.1-5.9,15.5-5.9
				c6.5,0,11.4,1.8,14.9,5.5c3.5,3.6,5.2,8.8,5.2,15.7C419.4,268.2,419.4,286.6,419.4,286.6z"/>
			<path class="st1" d="M398.7,259.7c-2.2,0-3.9,0.6-4.9,2c-1,1.3-1.5,3.4-1.5,6.4v7.2h12.5v-7.2c0-3-0.5-5.2-1.5-6.4
				C402.4,260.3,400.8,259.7,398.7,259.7z"/>
			<path class="st1" d="M350,259.4c-1,0-2,0.2-3,0.7c-1,0.5-1.9,1.2-2.9,2.2v44.7c1.1,1.2,2.3,2,3.4,2.5c1.1,0.5,2.2,0.8,3.4,0.8
				c1.7,0,3-0.5,3.8-1.5c0.8-1,1.2-2.6,1.2-4.9v-37.1c0-2.4-0.5-4.3-1.5-5.5C353.4,260.1,351.9,259.4,350,259.4z"/>
		</g>
		<path class="st1" d="M398.6,162h-15.9v-8.7c-2.9,3.2-6,5.7-9.1,7.4c-3.2,1.7-6.2,2.5-9.2,2.5c-3.7,0-6.4-1.2-8.3-3.5
			c-1.9-2.4-2.8-5.9-2.8-10.6V82.9h15.9v60.6c0,1.9,0.4,3.2,1,4.1c0.6,0.8,1.7,1.3,3.2,1.3c1.2,0,2.6-0.6,4.4-1.7
			c1.8-1.1,3.4-2.5,4.9-4.3v-60h15.9L398.6,162L398.6,162z"/>
		<path class="st1" d="M334.1,86.6c-4.2-3.8-9.6-5.8-16.2-5.8c-7.2,0-13,1.8-17.2,5.5c-4.3,3.6-6.4,8.5-6.4,14.6v41
			c0,6.7,2.1,12.1,6.2,16c4.2,4,9.8,6,16.7,6c7.2,0,12.9-1.9,17-5.8c4.1-3.9,6.2-9.2,6.2-15.9v-40.8
			C340.4,95.4,338.3,90.4,334.1,86.6z M324.2,143.4c0,2.1-0.6,3.8-1.9,5c-1.3,1.2-3,1.8-5.1,1.8c-2.1,0-3.7-0.6-4.9-1.8
			c-1.1-1.2-1.7-2.9-1.7-5v-43.1c0-1.7,0.6-3.1,1.8-4.2c1.2-1.1,2.8-1.6,4.7-1.6c2.1,0,3.8,0.5,5.1,1.6c1.3,1.1,1.9,2.5,1.9,4.2
			L324.2,143.4L324.2,143.4z"/>
		<polygon class="st1" points="251,54.7 232.9,54.7 254.2,119.5 254.2,162 272.1,162 272.1,117.5 293,54.7 274.8,54.7 263.7,97.6
			262.6,97.6 		"/>
	</g>
</g>
</svg>
